<?xml version="1.0" encoding="iso-8859-1"?>
<!-- Generator: Adobe Illustrator 16.0.0, SVG Export Plug-In . SVG Version: 6.00 Build 0)  -->
<!DOCTYPE svg PUBLIC "-//W3C//DTD SVG 1.1//EN" "http://www.w3.org/Graphics/SVG/1.1/DTD/svg11.dtd">
<svg version="1.1" id="Layer_1" xmlns="http://www.w3.org/2000/svg" xmlns:xlink="http://www.w3.org/1999/xlink" x="0px" y="0px"
	 width="1280px" height="720px" viewBox="0 0 1280 720" style="enable-background:new 0 0 1280 720;" xml:space="preserve">
<path style="fill-rule:evenodd;clip-rule:evenodd;fill:none;" d="M631.57,377.504c-1.862,0-3.547-1.473-3.769-3.351l-1.803-15.239
	c-0.305-2.575,1.302-4.746,3.6-4.746h20.807c2.298,0,3.904,2.171,3.6,4.746l-1.803,15.239c-0.222,1.878-1.906,3.351-3.769,3.351
	H631.57z"/>
<path style="fill-rule:evenodd;clip-rule:evenodd;fill:none;" d="M649.897,380.004c2.188,0,4.166-1.789,4.427-4.069l2.117-18.505
	c0.358-3.126-1.529-5.763-4.228-5.763h-24.437c-2.699,0-4.586,2.636-4.228,5.763l2.117,18.505c0.261,2.28,2.239,4.069,4.427,4.069
	H649.897z"/>
<path style="fill-rule:evenodd;clip-rule:evenodd;fill:none;" d="M634.706,356.668c1.125,0,2.038,0.933,2.038,2.083
	s-0.912,2.084-2.038,2.084c-1.125,0-2.038-0.933-2.038-2.084S633.581,356.668,634.706,356.668z"/>
<path style="fill-rule:evenodd;clip-rule:evenodd;fill:none;" d="M645.301,351.251c0-3.441,0-7.918-5.297-7.918
	s-5.297,4.477-5.297,7.918c0,3.44-1.223,2.083-1.223,2.083s-1.63,3.209-1.63-2.083c0-5.293,1.426-11.251,8.15-11.251
	c6.724,0,8.15,5.958,8.15,11.251c-1.299,1.542-1.63,1.25-1.63,1.25l-1.63,0.833C644.894,353.335,645.57,351.686,645.301,351.251z"/>
<path style="fill-rule:evenodd;clip-rule:evenodd;fill:#FFFFFF;" d="M645.301,356.668c1.125,0,2.038,0.933,2.038,2.083
	s-0.912,2.084-2.038,2.084c-1.125,0-2.037-0.933-2.037-2.084S644.176,356.668,645.301,356.668z"/>
</svg>
